<svg xmlns="http://www.w3.org/2000/svg" xmlns:xlink="http://www.w3.org/1999/xlink" width="260" height="260" viewBox="0 0 260 260" fill="none"><defs><rect id="path_0" x="0" y="0" width="260" height="260" /></defs><g opacity="1" transform="translate(0 0)  rotate(0 130 130)"><rect fill="#9772ED" opacity="0.25" transform="translate(0 0)  rotate(0 130 130)" x="0" y="0" width="260" height="260" rx="130" /><mask id="bg-mask-0" fill="white"><use xlink:href="#path_0"></use></mask><g mask="url(#bg-mask-0)" ><g opacity="1" transform="translate(0 157)  rotate(0 125 74)"><path id="三角形 1" fill-rule="evenodd" style="fill:#9772ED" transform="translate(100 25)  rotate(0 75 55.78125)" opacity="1" d="M10.05,83.67L139.95,83.67L75,0L10.05,83.67Z " /><path id="三角形 1" fill-rule="evenodd" style="fill:#9772ED" transform="translate(0 0)  rotate(0 100 74)" opacity="1" d="M13.4,111L186.6,111L100,0L13.4,111Z " /></g><path id="Sun" fill-rule="evenodd" style="fill:#9772ED" transform="translate(142 48)  rotate(0 32.99999999999999 33.00000000000001)" opacity="1" d="M33.0005 52.8013C43.9305 52.8013 52.8005 43.9313 52.8005 33.0013C52.8005 22.0713 43.9305 13.2013 33.0005 13.2013C22.0705 13.2013 13.2005 22.0713 13.2005 33.0013C13.2005 43.9313 22.0705 52.8013 33.0005 52.8013Z M31.3512 6.16198C32.3712 6.75198 33.6312 6.75198 34.6512 6.16198C35.6712 5.57198 36.3012 4.48198 36.3012 3.30198C36.3012 2.12198 35.6712 1.03198 34.6512 0.44198C33.6312 -0.14802 32.3712 -0.14802 31.3512 0.44198C30.3312 1.03198 29.7012 2.12198 29.7012 3.30198C29.7012 4.48198 30.3312 5.57198 31.3512 6.16198Z M31.3512 65.559C32.3712 66.149 33.6312 66.149 34.6512 65.559C35.6712 64.969 36.3012 63.879 36.3012 62.699C36.3012 61.519 35.6712 60.429 34.6512 59.839C33.6312 59.249 32.3712 59.249 31.3512 59.839C30.3312 60.429 29.7012 61.519 29.7012 62.699C29.7012 63.879 30.3312 64.969 31.3512 65.559Z M62.7024 36.3005C64.5224 36.3005 66.0024 34.8205 66.0024 33.0005C66.0024 31.1805 64.5224 29.7005 62.7024 29.7005C60.8824 29.7005 59.4024 31.1805 59.4024 33.0005C59.4024 34.8205 60.8824 36.3005 62.7024 36.3005Z M3.3 36.3005C5.12 36.3005 6.6 34.8205 6.6 33.0005C6.6 31.1805 5.12 29.7005 3.3 29.7005C1.48 29.7005 0 31.1805 0 33.0005C0 34.8205 1.48 36.3005 3.3 36.3005Z M9.90033 14.4111C10.9203 15.0011 12.1803 15.0011 13.2003 14.4111C14.2203 13.8211 14.8503 12.7311 14.8503 11.5511C14.8503 10.3711 14.2203 9.28106 13.2003 8.69106C12.1803 8.10106 10.9203 8.10106 9.90033 8.69106C8.88033 9.28106 8.25033 10.3711 8.25033 11.5511C8.25033 12.7311 8.88033 13.8211 9.90033 14.4111Z M52.802 57.3089C53.822 57.8989 55.082 57.8989 56.102 57.3089C57.122 56.7189 57.752 55.6289 57.752 54.4489C57.752 53.2689 57.122 52.1789 56.102 51.5889C55.082 50.9989 53.822 50.9989 52.802 51.5889C51.782 52.1789 51.152 53.2689 51.152 54.4489C51.152 55.6289 51.782 56.7189 52.802 57.3089Z M52.802 14.4111C53.822 15.0011 55.082 15.0011 56.102 14.4111C57.122 13.8211 57.752 12.7311 57.752 11.5511C57.752 10.3711 57.122 9.28106 56.102 8.69106C55.082 8.10106 53.822 8.10106 52.802 8.69106C51.782 9.28106 51.152 10.3711 51.152 11.5511C51.152 12.7311 51.782 13.8211 52.802 14.4111Z M9.90033 57.3089C10.9203 57.8989 12.1803 57.8989 13.2003 57.3089C14.2203 56.7189 14.8503 55.6289 14.8503 54.4489C14.8503 53.2689 14.2203 52.1789 13.2003 51.5889C12.1803 50.9989 10.9203 50.9989 9.90033 51.5889C8.88033 52.1789 8.25033 53.2689 8.25033 54.4489C8.25033 55.6289 8.88033 56.7189 9.90033 57.3089Z " /></g></g></svg>